<mxfile host="app.diagrams.net" modified="2024-04-24T12:25:22.453Z" agent="Mozilla/5.0 (Windows NT 10.0; Win64; x64) AppleWebKit/537.36 (KHTML, like Gecko) Chrome/124.0.0.0 Safari/537.36" etag="4hwTHEqhfT-bPZY17LPj" version="24.2.8" type="github">
  <diagram name="Pagina-1" id="KrtfDqgO1VHasFFgw9kz">
    <mxGraphModel dx="819" dy="426" grid="1" gridSize="10" guides="1" tooltips="1" connect="1" arrows="1" fold="1" page="1" pageScale="1" pageWidth="827" pageHeight="1169" math="0" shadow="0">
      <root>
        <mxCell id="0" />
        <mxCell id="1" parent="0" />
        <mxCell id="oIv5-8m1iUgW6gRGQhJg-6" style="edgeStyle=orthogonalEdgeStyle;rounded=0;orthogonalLoop=1;jettySize=auto;html=1;entryX=0.5;entryY=0;entryDx=0;entryDy=0;" edge="1" parent="1" source="oIv5-8m1iUgW6gRGQhJg-1" target="oIv5-8m1iUgW6gRGQhJg-2">
          <mxGeometry relative="1" as="geometry" />
        </mxCell>
        <mxCell id="oIv5-8m1iUgW6gRGQhJg-1" value="UI" style="rounded=0;whiteSpace=wrap;html=1;" vertex="1" parent="1">
          <mxGeometry x="120" y="60" width="120" height="60" as="geometry" />
        </mxCell>
        <mxCell id="oIv5-8m1iUgW6gRGQhJg-9" style="edgeStyle=orthogonalEdgeStyle;rounded=0;orthogonalLoop=1;jettySize=auto;html=1;entryX=0;entryY=0.5;entryDx=0;entryDy=0;" edge="1" parent="1" source="oIv5-8m1iUgW6gRGQhJg-2" target="oIv5-8m1iUgW6gRGQhJg-3">
          <mxGeometry relative="1" as="geometry" />
        </mxCell>
        <mxCell id="oIv5-8m1iUgW6gRGQhJg-13" value="" style="edgeStyle=orthogonalEdgeStyle;rounded=0;orthogonalLoop=1;jettySize=auto;html=1;" edge="1" parent="1" source="oIv5-8m1iUgW6gRGQhJg-2" target="oIv5-8m1iUgW6gRGQhJg-12">
          <mxGeometry relative="1" as="geometry" />
        </mxCell>
        <mxCell id="oIv5-8m1iUgW6gRGQhJg-2" value="Application" style="rounded=0;whiteSpace=wrap;html=1;" vertex="1" parent="1">
          <mxGeometry x="120" y="220" width="120" height="60" as="geometry" />
        </mxCell>
        <mxCell id="oIv5-8m1iUgW6gRGQhJg-11" style="edgeStyle=orthogonalEdgeStyle;rounded=0;orthogonalLoop=1;jettySize=auto;html=1;entryX=0;entryY=0.5;entryDx=0;entryDy=0;dashed=1;" edge="1" parent="1" source="oIv5-8m1iUgW6gRGQhJg-3" target="oIv5-8m1iUgW6gRGQhJg-4">
          <mxGeometry relative="1" as="geometry" />
        </mxCell>
        <mxCell id="oIv5-8m1iUgW6gRGQhJg-3" value="BLL" style="rounded=0;whiteSpace=wrap;html=1;" vertex="1" parent="1">
          <mxGeometry x="380" y="220" width="120" height="60" as="geometry" />
        </mxCell>
        <mxCell id="oIv5-8m1iUgW6gRGQhJg-4" value="API" style="rounded=0;whiteSpace=wrap;html=1;" vertex="1" parent="1">
          <mxGeometry x="640" y="220" width="120" height="60" as="geometry" />
        </mxCell>
        <mxCell id="oIv5-8m1iUgW6gRGQhJg-7" value="Char(s)" style="rounded=0;whiteSpace=wrap;html=1;dashed=1;" vertex="1" parent="1">
          <mxGeometry x="50" y="140" width="120" height="60" as="geometry" />
        </mxCell>
        <mxCell id="oIv5-8m1iUgW6gRGQhJg-8" value="Q -&amp;gt; vector van strings" style="rounded=0;whiteSpace=wrap;html=1;dashed=1;" vertex="1" parent="1">
          <mxGeometry x="250" y="300" width="120" height="60" as="geometry" />
        </mxCell>
        <mxCell id="oIv5-8m1iUgW6gRGQhJg-10" value="Functie calls" style="rounded=0;whiteSpace=wrap;html=1;dashed=1;" vertex="1" parent="1">
          <mxGeometry x="510" y="300" width="120" height="60" as="geometry" />
        </mxCell>
        <mxCell id="oIv5-8m1iUgW6gRGQhJg-12" value="Interrupt \n" style="rounded=0;whiteSpace=wrap;html=1;dashed=1;" vertex="1" parent="1">
          <mxGeometry x="120" y="300" width="120" height="60" as="geometry" />
        </mxCell>
      </root>
    </mxGraphModel>
  </diagram>
</mxfile>
